{
    "asset" : {
        "generator" : "Khronos glTF Blender I/O v1.6.16",
        "version" : "2.0"
    },
    "scene" : 0,
    "scenes" : [
        {
            "name" : "Scene",
            "nodes" : [
                0,
                1,
                2,
                3
            ]
        }
    ],
    "nodes" : [
        {
            "mesh" : 0,
            "name" : "Sphere",
            "scale" : [
                2.1232213973999023,
                2.1232213973999023,
                2.1232213973999023
            ]
        },
        {
            "mesh" : 1,
            "name" : "Sphere.001",
            "scale" : [
                2.1232213973999023,
                2.1232213973999023,
                2.1232213973999023
            ]
        },
        {
            "mesh" : 2,
            "name" : "Sphere.002",
            "scale" : [
                2.1232213973999023,
                2.1232213973999023,
                2.1232213973999023
            ]
        },
        {
            "mesh" : 3,
            "name" : "Sphere.003",
            "scale" : [
                2.1232213973999023,
                2.1232213973999023,
                2.1232213973999023
            ]
        }
    ],
    "materials" : [
        {
            "doubleSided" : true,
            "name" : "Material.001",
            "pbrMetallicRoughness" : {
                "baseColorTexture" : {
                    "index" : 0
                }
            }
        }
    ],
    "meshes" : [
        {
            "name" : "Sphere",
            "primitives" : [
                {
                    "attributes" : {
                        "POSITION" : 0,
                        "NORMAL" : 1,
                        "TEXCOORD_0" : 2
                    },
                    "indices" : 3,
                    "material" : 0
                }
            ]
        },
        {
            "name" : "Sphere.001",
            "primitives" : [
                {
                    "attributes" : {
                        "POSITION" : 4,
                        "NORMAL" : 5,
                        "TEXCOORD_0" : 6
                    },
                    "indices" : 7,
                    "material" : 0
                }
            ]
        },
        {
            "name" : "Sphere.002",
            "primitives" : [
                {
                    "attributes" : {
                        "POSITION" : 8,
                        "NORMAL" : 9,
                        "TEXCOORD_0" : 10
                    },
                    "indices" : 11,
                    "material" : 0
                }
            ]
        },
        {
            "name" : "Sphere.003",
            "primitives" : [
                {
                    "attributes" : {
                        "POSITION" : 12,
                        "NORMAL" : 13,
                        "TEXCOORD_0" : 14
                    },
                    "indices" : 15,
                    "material" : 0
                }
            ]
        }
    ],
    "textures" : [
        {
            "sampler" : 0,
            "source" : 0
        }
    ],
    "images" : [
        {
            "mimeType" : "image/jpeg",
            "name" : "DefaultMaterial_baseColor",
            "uri" : "DefaultMaterial_baseColor.jpg"
        }
    ],
    "accessors" : [
        {
            "bufferView" : 0,
            "componentType" : 5126,
            "count" : 1093,
            "max" : [
                0.9951850771903992,
                -0.09704483300447464,
                0.9424087405204773
            ],
            "min" : [
                -0.9951847195625305,
                -1,
                -0.9951847195625305
            ],
            "type" : "VEC3"
        },
        {
            "bufferView" : 1,
            "componentType" : 5126,
            "count" : 1093,
            "type" : "VEC3"
        },
        {
            "bufferView" : 2,
            "componentType" : 5126,
            "count" : 1093,
            "type" : "VEC2"
        },
        {
            "bufferView" : 3,
            "componentType" : 5123,
            "count" : 5904,
            "type" : "SCALAR"
        },
        {
            "bufferView" : 4,
            "componentType" : 5126,
            "count" : 107,
            "max" : [
                0.19887492060661316,
                0.19862037897109985,
                0.9561930894851685
            ],
            "min" : [
                -0.19886614382266998,
                -0.1986207365989685,
                0.9238183498382568
            ],
            "type" : "VEC3"
        },
        {
            "bufferView" : 5,
            "componentType" : 5126,
            "count" : 107,
            "type" : "VEC3"
        },
        {
            "bufferView" : 6,
            "componentType" : 5126,
            "count" : 107,
            "type" : "VEC2"
        },
        {
            "bufferView" : 7,
            "componentType" : 5123,
            "count" : 210,
            "type" : "SCALAR"
        },
        {
            "bufferView" : 8,
            "componentType" : 5126,
            "count" : 302,
            "max" : [
                0.9801821708679199,
                0.3320770561695099,
                0.9238185286521912
            ],
            "min" : [
                -0.9801818132400513,
                -0.33207741379737854,
                -0.9801815748214722
            ],
            "type" : "VEC3"
        },
        {
            "bufferView" : 9,
            "componentType" : 5126,
            "count" : 302,
            "type" : "VEC3"
        },
        {
            "bufferView" : 10,
            "componentType" : 5126,
            "count" : 302,
            "type" : "VEC2"
        },
        {
            "bufferView" : 11,
            "componentType" : 5123,
            "count" : 864,
            "type" : "SCALAR"
        },
        {
            "bufferView" : 12,
            "componentType" : 5126,
            "count" : 1093,
            "max" : [
                0.9951850771903992,
                1,
                0.9424089193344116
            ],
            "min" : [
                -0.9951847195625305,
                0.09704450517892838,
                -0.9951847195625305
            ],
            "type" : "VEC3"
        },
        {
            "bufferView" : 13,
            "componentType" : 5126,
            "count" : 1093,
            "type" : "VEC3"
        },
        {
            "bufferView" : 14,
            "componentType" : 5126,
            "count" : 1093,
            "type" : "VEC2"
        },
        {
            "bufferView" : 15,
            "componentType" : 5123,
            "count" : 5904,
            "type" : "SCALAR"
        }
    ],
    "bufferViews" : [
        {
            "buffer" : 0,
            "byteLength" : 13116,
            "byteOffset" : 0
        },
        {
            "buffer" : 0,
            "byteLength" : 13116,
            "byteOffset" : 13116
        },
        {
            "buffer" : 0,
            "byteLength" : 8744,
            "byteOffset" : 26232
        },
        {
            "buffer" : 0,
            "byteLength" : 11808,
            "byteOffset" : 34976
        },
        {
            "buffer" : 0,
            "byteLength" : 1284,
            "byteOffset" : 46784
        },
        {
            "buffer" : 0,
            "byteLength" : 1284,
            "byteOffset" : 48068
        },
        {
            "buffer" : 0,
            "byteLength" : 856,
            "byteOffset" : 49352
        },
        {
            "buffer" : 0,
            "byteLength" : 420,
            "byteOffset" : 50208
        },
        {
            "buffer" : 0,
            "byteLength" : 3624,
            "byteOffset" : 50628
        },
        {
            "buffer" : 0,
            "byteLength" : 3624,
            "byteOffset" : 54252
        },
        {
            "buffer" : 0,
            "byteLength" : 2416,
            "byteOffset" : 57876
        },
        {
            "buffer" : 0,
            "byteLength" : 1728,
            "byteOffset" : 60292
        },
        {
            "buffer" : 0,
            "byteLength" : 13116,
            "byteOffset" : 62020
        },
        {
            "buffer" : 0,
            "byteLength" : 13116,
            "byteOffset" : 75136
        },
        {
            "buffer" : 0,
            "byteLength" : 8744,
            "byteOffset" : 88252
        },
        {
            "buffer" : 0,
            "byteLength" : 11808,
            "byteOffset" : 96996
        }
    ],
    "samplers" : [
        {
            "magFilter" : 9729,
            "minFilter" : 9987
        }
    ],
    "buffers" : [
        {
            "byteLength" : 108804,
            "uri" : "red_pokeball.bin"
        }
    ]
}
